<svg id="visual" viewBox="0 0 900 600" width="900" height="600" xmlns="http://www.w3.org/2000/svg" xmlns:xlink="http://www.w3.org/1999/xlink" version="1.1"><rect x="0" y="0" width="900" height="600" fill="#002233"></rect><path d="M0 136L21.5 136C43 136 86 136 128.8 131.7C171.7 127.3 214.3 118.7 257.2 118.3C300 118 343 126 385.8 123.8C428.7 121.7 471.3 109.3 514.2 106.7C557 104 600 111 642.8 117.5C685.7 124 728.3 130 771.2 130.3C814 130.7 857 125.3 878.5 122.7L900 120L900 0L878.5 0C857 0 814 0 771.2 0C728.3 0 685.7 0 642.8 0C600 0 557 0 514.2 0C471.3 0 428.7 0 385.8 0C343 0 300 0 257.2 0C214.3 0 171.7 0 128.8 0C86 0 43 0 21.5 0L0 0Z" fill="#0066FF" stroke-linecap="round" stroke-linejoin="miter"></path></svg>