<svg id="visual" viewBox="0 0 900 600" width="900" height="600" xmlns="http://www.w3.org/2000/svg" xmlns:xlink="http://www.w3.org/1999/xlink" version="1.1"><path d="M0 368L21.5 371.3C43 374.7 86 381.3 128.8 391.5C171.7 401.7 214.3 415.3 257.2 413.5C300 411.7 343 394.3 385.8 397.5C428.7 400.7 471.3 424.3 514.2 427.8C557 431.3 600 414.7 642.8 403C685.7 391.3 728.3 384.7 771.2 383C814 381.3 857 384.7 878.5 386.3L900 388L900 601L878.5 601C857 601 814 601 771.2 601C728.3 601 685.7 601 642.8 601C600 601 557 601 514.2 601C471.3 601 428.7 601 385.8 601C343 601 300 601 257.2 601C214.3 601 171.7 601 128.8 601C86 601 43 601 21.5 601L0 601Z" fill="#390e2d"></path><path d="M0 409L21.5 415C43 421 86 433 128.8 443C171.7 453 214.3 461 257.2 458.5C300 456 343 443 385.8 431.5C428.7 420 471.3 410 514.2 413.5C557 417 600 434 642.8 435C685.7 436 728.3 421 771.2 419.5C814 418 857 430 878.5 436L900 442L900 601L878.5 601C857 601 814 601 771.2 601C728.3 601 685.7 601 642.8 601C600 601 557 601 514.2 601C471.3 601 428.7 601 385.8 601C343 601 300 601 257.2 601C214.3 601 171.7 601 128.8 601C86 601 43 601 21.5 601L0 601Z" fill="#250c35"></path><path d="M0 462L21.5 459.2C43 456.3 86 450.7 128.8 456.8C171.7 463 214.3 481 257.2 484.8C300 488.7 343 478.3 385.8 468.2C428.7 458 471.3 448 514.2 443.5C557 439 600 440 642.8 447.2C685.7 454.3 728.3 467.7 771.2 468C814 468.3 857 455.7 878.5 449.3L900 443L900 601L878.5 601C857 601 814 601 771.2 601C728.3 601 685.7 601 642.8 601C600 601 557 601 514.2 601C471.3 601 428.7 601 385.8 601C343 601 300 601 257.2 601C214.3 601 171.7 601 128.8 601C86 601 43 601 21.5 601L0 601Z" fill="#110c39"></path><path d="M0 527L21.5 520.3C43 513.7 86 500.3 128.8 497.8C171.7 495.3 214.3 503.7 257.2 507.3C300 511 343 510 385.8 507C428.7 504 471.3 499 514.2 503.8C557 508.7 600 523.3 642.8 527.2C685.7 531 728.3 524 771.2 520.8C814 517.7 857 518.3 878.5 518.7L900 519L900 601L878.5 601C857 601 814 601 771.2 601C728.3 601 685.7 601 642.8 601C600 601 557 601 514.2 601C471.3 601 428.7 601 385.8 601C343 601 300 601 257.2 601C214.3 601 171.7 601 128.8 601C86 601 43 601 21.5 601L0 601Z" fill="#250c35"></path><path d="M0 569L21.5 567C43 565 86 561 128.8 560C171.7 559 214.3 561 257.2 556.5C300 552 343 541 385.8 541.5C428.7 542 471.3 554 514.2 553.5C557 553 600 540 642.8 534.2C685.7 528.3 728.3 529.7 771.2 531.2C814 532.7 857 534.3 878.5 535.2L900 536L900 601L878.5 601C857 601 814 601 771.2 601C728.3 601 685.7 601 642.8 601C600 601 557 601 514.2 601C471.3 601 428.7 601 385.8 601C343 601 300 601 257.2 601C214.3 601 171.7 601 128.8 601C86 601 43 601 21.5 601L0 601Z" fill="#390e2d"></path></svg>