<svg id="visual" viewBox="0 0 900 600" width="900" height="600" xmlns="http://www.w3.org/2000/svg" xmlns:xlink="http://www.w3.org/1999/xlink" version="1.1"><path d="M0 99L21.5 104.3C43 109.7 86 120.3 128.8 123.2C171.7 126 214.3 121 257.2 117C300 113 343 110 385.8 108.5C428.7 107 471.3 107 514.2 109.2C557 111.3 600 115.7 642.8 117.2C685.7 118.7 728.3 117.3 771.2 113.2C814 109 857 102 878.5 98.5L900 95L900 0L878.5 0C857 0 814 0 771.2 0C728.3 0 685.7 0 642.8 0C600 0 557 0 514.2 0C471.3 0 428.7 0 385.8 0C343 0 300 0 257.2 0C214.3 0 171.7 0 128.8 0C86 0 43 0 21.5 0L0 0Z" fill="#0066FF" stroke-linecap="round" stroke-linejoin="miter"></path></svg>